<svg xmlns="http://www.w3.org/2000/svg" viewBox="0 0 800 1000" role="img" aria-labelledby="title desc">
  <title id="title">Жингээ ойлгох тайван аялал</title>
  <desc id="desc">Навч, зам, нарны дулаан өнгөт хийсвэр дүрслэл</desc>
  <defs>
    <linearGradient id="bg" x1="0" y1="0" x2="1" y2="1"><stop stop-color="#d9eadc"/><stop offset="1" stop-color="#f3dcb7"/></linearGradient>
    <linearGradient id="path" x1="0" y1="0" x2="0" y2="1"><stop stop-color="#fffdf8"/><stop offset="1" stop-color="#e9c996"/></linearGradient>
  </defs>
  <rect width="800" height="1000" rx="80" fill="url(#bg)"/>
  <circle cx="610" cy="220" r="118" fill="#e7a85e" opacity=".78"/>
  <path d="M330 1000C280 800 570 715 460 520C390 395 305 310 390 120" fill="none" stroke="url(#path)" stroke-width="130" stroke-linecap="round"/>
  <g fill="#235c43">
    <path d="M110 790c170-70 220 20 235 130-145 18-225-18-235-130z" opacity=".92"/>
    <path d="M510 540c95-118 205-66 235 12-83 70-164 79-235-12z" opacity=".82"/>
    <path d="M86 335c112-92 207-26 213 65-109 42-183 18-213-65z" opacity=".72"/>
  </g>
  <g fill="none" stroke="#fffdf8" stroke-width="9" stroke-linecap="round" opacity=".72">
    <path d="M142 800c70 24 127 58 173 105"/><path d="M545 535c57 4 105 6 163 19"/><path d="M117 345c59 16 106 30 151 48"/>
  </g>
</svg>
